<svg width="15" height="15" viewBox="0 0 15 15" fill="none" xmlns="http://www.w3.org/2000/svg">
<path d="M8.32085e-05 5.61501C-0.00198385 5.7417 0.0345045 5.86602 0.10471 5.97149C0.174916 6.07696 0.275523 6.15861 0.393192 6.2056L6.39356 8.60606L8.79408 14.6069C8.84045 14.723 8.92056 14.8225 9.02406 14.8925C9.12756 14.9626 9.24969 15 9.37468 15H9.38468C9.51126 14.998 9.63425 14.9576 9.73737 14.8842C9.84049 14.8108 9.91888 14.7077 9.96216 14.5888L14.9619 0.839709C15.0029 0.727858 15.011 0.60664 14.9853 0.490333C14.9597 0.374025 14.9013 0.267471 14.8171 0.183218C14.7329 0.0989664 14.6264 0.0405251 14.5101 0.0147776C14.3938 -0.0109698 14.2726 -0.00295133 14.1607 0.0378886L0.411316 5.03755C0.292299 5.08094 0.189261 5.15944 0.11583 5.26267C0.0423997 5.36589 0.00203762 5.48897 8.32085e-05 5.61564V5.61501Z" fill="#EEAB00"/>
</svg>
