<svg width="40" height="40" viewBox="0 0 40 40" fill="none" xmlns="http://www.w3.org/2000/svg">
<path d="M19.9964 0.00552439C15.6446 0.00479178 11.4707 1.73871 8.39273 4.82591C5.31476 7.91311 3.5848 12.1008 3.58334 16.4678C3.58334 22.9384 5.92807 30.5855 19.9991 40C34.0647 30.5855 36.4094 22.9384 36.4094 16.4678C36.4098 14.3049 35.9855 12.1631 35.1607 10.1648C34.336 8.16648 33.127 6.35082 31.6028 4.82153C30.0786 3.29224 28.2691 2.0793 26.2776 1.25201C24.2861 0.424713 22.1518 -0.000724673 19.9964 9.26586e-07V0.00552439Z" fill="#9339F2"/>
<path d="M26 12V25.9244H18.0479L10 12H14.7705L21.6957 24.0584V12H26Z" fill="white"/>
</svg>
